<svg xmlns="http://www.w3.org/2000/svg" xmlns:lucid="lucid" width="327.25" height="285.58"><g lucid:page-tab-id="0_0" stroke="#000" stroke-opacity="0" stroke-width="2"><path d="M251.26 90.3c0 49.32-39.98 89.3-89.3 89.3s-89.3-39.98-89.3-89.3S112.63 1 161.95 1s89.3 39.98 89.3 89.3z" fill="#7fa3cd" fill-opacity=".9"/><path d="M326.25 195.28c0 49.32-39.98 89.3-89.3 89.3s-89.3-39.98-89.3-89.3 39.98-89.3 89.3-89.3 89.3 39.98 89.3 89.3z" fill="#e5e9e6" fill-opacity=".8"/><path d="M179.6 195.28c0 49.32-39.97 89.3-89.3 89.3-49.32 0-89.3-39.98-89.3-89.3s39.98-89.3 89.3-89.3c49.33 0 89.3 39.98 89.3 89.3z" fill="#b2c6d9" fill-opacity=".8"/></g></svg>